<svg xmlns="http://www.w3.org/2000/svg" width="693.12" height="105.6" viewBox="0 0 183.39 27.941"><g opacity=".75"><path fill="#fff" d="M154.094 22.18v1.063c0 .156.003.31.008.46.003.101.011.202.022.302a1.796 1.796 0 0 0-.52-.234 2.626 2.626 0 0 0-.74-.105c-.31 0-.572.06-.783.18-.206.116-.362.315-.468.596-.1.277-.15.659-.15 1.147 0 .638.1 1.126.3 1.462.202.332.539.498 1.011.498.327 0 .614-.068.86-.204.223-.125.414-.271.574-.44l.082.554h.716V22.18zm17.427 0v5.279h.912v-2.597c.234-.133.439-.236.61-.307.197-.08.388-.12.574-.12.166 0 .281.038.347.113.07.075.105.214.105.415v2.496h.92v-2.775c0-.679-.344-1.018-1.033-1.018-.276 0-.558.062-.845.188a3.624 3.624 0 0 0-.73.446c.011-.072.021-.15.03-.235.02-.166.03-.341.03-.527l-.008-1.358zm8.4 0v5.279h.912v-2.597c.234-.133.44-.236.611-.307.196-.08.387-.12.573-.12.166 0 .282.038.347.113.07.075.106.214.106.415v2.496h.92v-2.775c0-.679-.345-1.018-1.034-1.018-.276 0-.558.062-.844.188a3.624 3.624 0 0 0-.731.446c.012-.072.022-.15.03-.235.02-.166.03-.341.03-.527l-.008-1.358zm-15.013.52v1.06l-.656.034v.596h.656v2.134c0 .326.088.578.264.754.18.17.432.256.754.256.08 0 .178-.005.294-.015a2.929 2.929 0 0 0 .664-.106l-.098-.64h-.513c-.166 0-.284-.033-.355-.099-.065-.07-.098-.18-.098-.331V24.39h1.101v-.634h-1.1v-1.055zm-16.642.28c-.412 0-.754.017-1.026.052s-.492.1-.663.196c-.166.096-.292.234-.377.415s-.14.42-.166.716c-.025.292-.038.654-.038 1.086 0 .438.015.807.045 1.109s.093.545.189.731c.095.181.236.32.422.415.191.095.44.16.747.196.311.035.699.05 1.161.045.342 0 .684-.007 1.026-.022s.683-.036 1.025-.06v-.62h-2.058c-.302 0-.556-.004-.762-.014-.206-.015-.372-.05-.498-.106s-.221-.146-.286-.271-.11-.302-.136-.528c-.02-.231-.03-.523-.03-.875 0-.427.015-.761.045-1.003.035-.24.1-.417.196-.527s.236-.179.422-.204c.191-.025.445-.038.762-.038h.943c.22 0 .369.038.444.113.08.076.121.201.121.377v.264h-1.418c-.301 0-.532.073-.693.219-.161.14-.242.337-.242.588v.37c0 .2.046.37.136.505s.214.239.37.309.334.106.535.106c.206 0 .4-.03.58-.09a2.341 2.341 0 0 0 .83-.52l.076.534h.678v-2.3c0-.427-.108-.729-.324-.905s-.523-.264-.92-.264zm20.527.685a3.11 3.11 0 0 0-.756.084c-.22.06-.384.165-.49.316-.1.151-.15.362-.15.634 0 .2.027.372.082.512a.821.821 0 0 0 .272.347c.125.09.301.166.528.227l.987.24c.181.046.317.094.408.144.095.045.143.138.143.28 0 .11-.028.195-.083.255-.055.056-.156.094-.302.114a6.17 6.17 0 0 1-.61.022h-.49c-.156 0-.305-.002-.446-.007a9.726 9.726 0 0 0-.354-.008l-.06.596c.342.055.656.088.942.098.287.015.503.023.649.023.377 0 .686-.028.927-.083.247-.06.425-.169.536-.325.115-.16.173-.394.173-.701 0-.317-.073-.55-.218-.701-.141-.156-.365-.272-.672-.347l-1.01-.234a1.7 1.7 0 0 1-.392-.136c-.08-.05-.12-.148-.12-.294 0-.12.022-.206.067-.256.05-.05.133-.08.249-.09.12-.01.284-.016.49-.016.231 0 .465.005.701.015l.724.015.06-.595a4.4 4.4 0 0 0-.512-.068 10.747 10.747 0 0 0-1.139-.06l-.134-.001zm8.4 0a3.11 3.11 0 0 0-.755.084c-.221.06-.385.165-.49.316-.1.151-.151.362-.151.634 0 .2.027.372.083.512a.821.821 0 0 0 .271.347c.126.09.302.166.528.227l.988.24c.18.046.316.094.407.144.095.045.143.138.143.28 0 .11-.027.195-.083.255-.055.056-.155.094-.301.114a6.17 6.17 0 0 1-.611.022h-.49c-.156 0-.304-.002-.445-.007a9.726 9.726 0 0 0-.354-.008l-.06.596c.341.055.655.088.942.098.286.015.503.023.648.023.377 0 .686-.028.928-.083.246-.06.425-.169.535-.325.116-.16.174-.394.174-.701 0-.317-.073-.55-.22-.701-.14-.156-.364-.272-.67-.347l-1.01-.234a1.7 1.7 0 0 1-.393-.136c-.08-.05-.12-.148-.12-.294 0-.12.022-.206.068-.256.05-.05.133-.08.248-.09.121-.01.284-.016.49-.016.232 0 .465.005.702.015l.724.015.06-.595a4.4 4.4 0 0 0-.513-.068 10.747 10.747 0 0 0-1.138-.06l-.135-.001zm-19.5.001c-.428 0-.777.06-1.049.181-.266.12-.462.324-.588.61-.12.282-.181.667-.181 1.154 0 .453.06.822.18 1.109.127.286.325.498.597.633.276.131.64.196 1.093.196.166 0 .342-.01.528-.03.19-.015.374-.04.55-.075.176-.035.332-.08.468-.136l-.09-.58a14.382 14.382 0 0 1-1.35.082c-.252 0-.453-.032-.604-.098a.628.628 0 0 1-.324-.384 1.759 1.759 0 0 1-.08-.4h1.49c.377 0 .646-.085.807-.256.166-.176.246-.433.241-.77-.005-.407-.138-.713-.4-.92-.26-.21-.69-.316-1.289-.316zm2.488.09v2.783c0 .679.344 1.018 1.033 1.018.281 0 .553-.058.814-.174.24-.106.49-.26.748-.46l.074.536h.724v-3.703h-.913v2.625c-.211.124-.396.22-.55.286-.176.075-.352.113-.528.113s-.304-.04-.384-.12c-.076-.08-.111-.214-.106-.4v-2.504zm-2.451.589c.271 0 .462.04.573.12.116.08.176.224.18.43 0 .13-.024.241-.074.332-.046.09-.154.136-.325.136h-1.255c.007-.237.03-.428.071-.566.056-.17.149-.289.28-.354s.314-.098.55-.098zm-4.577.015c.19 0 .364.02.52.06.125.032.272.073.422.115v1.86l-.286.19c-.11.07-.219.122-.324.157a1.32 1.32 0 0 1-.362.046.804.804 0 0 1-.415-.098c-.106-.07-.184-.191-.234-.362-.05-.176-.075-.425-.075-.747 0-.337.025-.593.075-.769.055-.176.136-.294.241-.354a.854.854 0 0 1 .438-.098zm-3.378.535v.58a1.407 1.407 0 0 1-.332.22c-.12.055-.246.1-.377.135-.13.03-.257.045-.377.045-.141 0-.25-.032-.324-.098s-.114-.17-.114-.316v-.166c0-.126.033-.216.099-.272.065-.06.173-.093.324-.098z"/><path fill="none" d="M146.57.266h16.933v16.933H146.57z" class="st1"/><path fill="#fcfcfe" d="M155.037 4.933c-2.104 0-3.8 1.696-3.8 3.8s1.696 3.8 3.8 3.8 3.8-1.697 3.8-3.8-1.697-3.8-3.8-3.8zm0 6.27c-1.36 0-2.471-1.108-2.471-2.47s1.108-2.47 2.47-2.47 2.471 1.107 2.471 2.47-1.111 2.47-2.47 2.47zm4.841-6.426a.884.884 0 0 1-.886.886.886.886 0 1 1 .886-.886zm2.517.9c-.056-1.188-.327-2.24-1.197-3.106-.867-.866-1.918-1.138-3.106-1.197-1.223-.07-4.891-.07-6.115 0-1.184.056-2.235.327-3.105 1.194s-1.138 1.918-1.197 3.105c-.07 1.224-.07 4.892 0 6.115.056 1.188.327 2.24 1.197 3.106s1.918 1.138 3.105 1.197c1.224.07 4.892.07 6.115 0 1.188-.056 2.24-.327 3.106-1.197.866-.867 1.138-1.918 1.197-3.106.07-1.223.07-4.888 0-6.111zm-1.58 7.424a2.501 2.501 0 0 1-1.41 1.41c-.975.386-3.29.297-4.368.297s-3.397.086-4.37-.298a2.501 2.501 0 0 1-1.408-1.409c-.387-.975-.298-3.29-.298-4.368s-.086-3.397.298-4.37a2.501 2.501 0 0 1 1.409-1.408c.975-.387 3.29-.298 4.369-.298s3.396-.086 4.368.298a2.501 2.501 0 0 1 1.41 1.409c.386.975.297 3.29.297 4.369s.09 3.396-.298 4.368z" class="st2"/><path fill="none" d="M165.878 0h16.933v16.933h-16.933z" class="st1"/><path fill="#fff" d="m181.71 3.387-2.236 10.543c-.169.744-.609.93-1.234.579l-3.406-2.51-1.644 1.58c-.182.183-.334.335-.685.335l.245-3.47 6.314-5.705c.274-.244-.06-.38-.427-.135l-7.805 4.914-3.36-1.051c-.731-.229-.744-.731.152-1.082l13.143-5.063c.608-.228 1.14.135.943 1.065z" class="st3"/><path fill="#fff" d="M31.682.213v13.673h3.489V8.7c0-.478.12-.893.358-1.245.252-.364.578-.647.98-.848a3.071 3.071 0 0 1 1.359-.302c.352 0 .66.044.924.132.276.088.503.22.679.396.188.163.327.377.415.641.1.252.15.547.15.886v5.526h3.47V7.89c0-.93-.163-1.704-.49-2.32a2.973 2.973 0 0 0-1.433-1.395c-.641-.315-1.446-.472-2.414-.472-.465 0-.93.05-1.396.151a4.479 4.479 0 0 0-1.32.471 4.4 4.4 0 0 0-1.15.868h-.132V.213zM7.805.685C6.8.685 5.87.767 5.015.93c-.856.15-1.598.39-2.226.717-.629.327-1.12.742-1.471 1.244-.34.49-.51 1.082-.51 1.773 0 .68.145 1.258.434 1.735.29.478.68.868 1.17 1.17.49.301 1.043.547 1.66.735.615.176 1.25.32 1.904.434.654.1 1.283.188 1.886.264.616.075 1.17.163 1.66.264.503.088.892.214 1.169.377.29.151.434.358.434.622 0 .202-.07.371-.208.51a1.496 1.496 0 0 1-.547.32 4.053 4.053 0 0 1-.773.208c-.289.038-.59.069-.905.094-.302.013-.597.019-.887.019-.716 0-1.338-.044-1.867-.132-.528-.088-.943-.239-1.244-.453-.29-.226-.434-.534-.434-.924v-.17l.038-.15H.526a.356.356 0 0 0-.02.113v.094c0 .868.196 1.584.586 2.15s.93 1.006 1.621 1.32 1.497.535 2.414.66 1.905.189 2.961.189c1.358 0 2.56-.145 3.603-.434 1.056-.29 1.886-.754 2.49-1.395.603-.642.904-1.484.904-2.528 0-.666-.144-1.226-.433-1.678a3.362 3.362 0 0 0-1.17-1.132 6.617 6.617 0 0 0-1.66-.716 14.557 14.557 0 0 0-1.904-.415c-.654-.1-1.289-.189-1.905-.264a31.409 31.409 0 0 1-1.64-.245c-.491-.089-.881-.202-1.17-.34-.29-.15-.434-.352-.434-.604 0-.2.113-.377.34-.528.226-.163.578-.289 1.056-.377.477-.1 1.087-.15 1.83-.15.615 0 1.137.062 1.565.188.44.113.773.277.999.49.226.201.34.434.34.698v.151h3.715V4.57c0-.654-.164-1.22-.49-1.697-.315-.49-.774-.893-1.377-1.207-.591-.327-1.308-.573-2.15-.736-.83-.163-1.76-.245-2.791-.245zm15.522 3.017c-1.333 0-2.496.195-3.49.585-.98.377-1.74.95-2.281 1.716-.528.767-.792 1.735-.792 2.905s.264 2.137.792 2.904c.54.767 1.301 1.345 2.282 1.735.993.377 2.156.566 3.489.566.868 0 1.678-.082 2.433-.245.767-.176 1.433-.434 1.999-.774a4.02 4.02 0 0 0 1.358-1.32c.327-.528.49-1.15.49-1.867h-3.395c0 .34-.125.654-.377.943-.239.277-.565.497-.98.66s-.88.245-1.396.245c-.704 0-1.289-.113-1.754-.34-.453-.225-.792-.533-1.018-.923-.227-.403-.34-.868-.34-1.396V8.72c0-.528.107-.987.32-1.377.227-.402.56-.71 1-.924.44-.226.994-.34 1.66-.34.515 0 .98.076 1.396.227.415.138.741.346.98.622.252.277.378.597.378.962h3.526c0-.691-.163-1.295-.49-1.81-.315-.528-.767-.969-1.358-1.32a6.78 6.78 0 0 0-2-.793 10.69 10.69 0 0 0-2.432-.264zM1.102 17.342.045 24.884c-.124.884.014 1.582.414 2.093.4.497 1.043.745 1.927.745.704 0 1.402-.207 2.092-.621.598-.352 1.247-.885 1.945-1.596.004.596.157 1.087.458 1.472.4.497 1.036.745 1.906.745.718 0 1.43-.207 2.134-.621.64-.39 1.337-.974 2.092-1.751l-.104 2.103h1.533l1.43-10.109h-2.01l-.905 6.597c-.485.423-.915.786-1.27 1.068a5.84 5.84 0 0 1-1.057.683 2.57 2.57 0 0 1-1.035.207c-.511 0-.85-.117-1.015-.352-.152-.248-.194-.635-.125-1.16l.995-7.043H7.523l-.913 6.519c-.527.485-.98.88-1.345 1.166-.386.304-.732.525-1.036.663a2.374 2.374 0 0 1-.994.207c-.442 0-.766-.11-.973-.33-.194-.236-.249-.63-.166-1.182l.994-7.043z"/></g></svg>