<?xml version="1.0" encoding="UTF-8"?>
<!-- Created with Inkscape (http://www.inkscape.org/) -->
<svg width="250" height="153.51" version="1.1" viewBox="0 0 66.146 40.616" xmlns="http://www.w3.org/2000/svg">
 <path d="m47.464 0v20.189h6.2249v-7.5464c0-0.61263 0.1389-1.1511 0.41679-1.6152 0.29642-0.48268 0.69487-0.85396 1.1951-1.1139 0.51873-0.27846 1.1116-0.41766 1.7785-0.41766 0.48168 0 0.88926 0.074266 1.2227 0.22278 0.352 0.12995 0.63912 0.3156 0.86144 0.55693 0.22231 0.24134 0.38897 0.53838 0.50012 0.8911 0.11116 0.33416 0.16682 0.69613 0.16682 1.086v7.9364h6.2248v-8.6882c0-1.3923-0.25007-2.5618-0.75027-3.5086-0.48168-0.94678-1.2136-1.6522-2.1955-2.1164-0.96337-0.48268-2.1768-0.72411-3.6404-0.72411-0.68547 0-1.3617 0.074263-2.0287 0.22278-0.66695 0.12995-1.2968 0.3434-1.8897 0.64043-0.59285 0.29703-1.1393 0.68697-1.6395 1.1696h-0.22231v-7.1846zm-36.348 0.69622c-1.408 0-2.7605 0.11138-4.0574 0.33416-1.2968 0.22277-2.4455 0.57558-3.4459 1.0583-1.0004 0.48268-1.797 1.1139-2.3898 1.8936-0.57431 0.7797-0.8616 1.7264-0.8616 2.8403 0 1.0396 0.20388 1.9214 0.61145 2.6454 0.4261 0.72402 0.9912 1.3181 1.6952 1.7822 0.72252 0.46411 1.5191 0.8354 2.3898 1.1139 0.88926 0.25991 1.8063 0.4642 2.7511 0.61272 0.94484 0.14852 1.8527 0.26905 2.7235 0.36187 0.88926 0.09283 1.6858 0.19506 2.3898 0.30645 0.72252 0.09283 1.2876 0.23202 1.6952 0.41766 0.4261 0.18564 0.63912 0.44555 0.63912 0.77971 0 0.24133-0.09255 0.44546-0.27781 0.61254-0.16674 0.14852-0.39836 0.26923-0.69478 0.36205-0.27789 0.09283-0.60206 0.16708-0.97259 0.22278-0.352 0.03712-0.72253 0.06493-1.1116 0.08349h-1.0837c-0.87073 0-1.6397-0.04627-2.3067-0.1391-0.66695-0.11139-1.1857-0.31568-1.5562-0.61272-0.37052-0.29702-0.55579-0.72393-0.55579-1.2809v-0.16717c0-0.07426 0.00931-0.14852 0.027833-0.22277h-6.6973c-0.018525 0.074255-0.027661 0.14852-0.027661 0.22277v0.13928c0 1.281 0.30556 2.3484 0.91692 3.2023 0.61137 0.8354 1.4544 1.4944 2.529 1.9771 1.0745 0.4641 2.325 0.78912 3.7515 0.97476 1.4265 0.20422 2.9641 0.30628 4.613 0.30628 2.0008 0 3.7887-0.22278 5.3634-0.66833 1.5933-0.46411 2.8438-1.1882 3.7515-2.1721 0.92631-0.98391 1.3896-2.2648 1.3896-3.8428 0-1.0025-0.21318-1.8471-0.63929-2.534-0.40758-0.68688-0.9725-1.2532-1.695-1.6987-0.704-0.44555-1.5007-0.78904-2.39-1.0304-0.87074-0.25991-1.7784-0.45472-2.7233-0.58466-0.94484-0.14852-1.8619-0.26922-2.7511-0.36205-0.87074-0.092818-1.6675-0.18573-2.39-0.27855-0.704-0.11139-1.2691-0.25991-1.6952-0.44555-0.40758-0.18564-0.61128-0.44555-0.61128-0.77971 0-0.22278 0.13891-0.4269 0.4168-0.61254 0.29642-0.20422 0.74105-0.36206 1.3339-0.47344 0.59284-0.11139 1.3339-0.167 2.2232-0.167 0.87073 0 1.5747 0.092738 2.112 0.27838 0.53726 0.16708 0.92623 0.39919 1.1671 0.69622 0.24084 0.27847 0.36131 0.6033 0.36131 0.97459v0.11139h6.6416v-0.33416c0-1.0767-0.27781-1.9863-0.8336-2.7289-0.55579-0.76115-1.3246-1.3739-2.3065-1.838-0.96336-0.46411-2.0843-0.79827-3.3626-1.0025-1.2598-0.22278-2.6121-0.33416-4.0572-0.33416zm23.565 4.4555c-2.0194 0-3.7979 0.27857-5.3356 0.8355-1.5377 0.55693-2.7418 1.4109-3.6125 2.5619-0.87074 1.1324-1.3061 2.5618-1.3061 4.2883 0 1.7265 0.43533 3.1559 1.3061 4.2883 0.87074 1.1324 2.0749 1.9864 3.6125 2.5619 1.5377 0.55694 3.3162 0.8355 5.3356 0.8355 1.3709 0 2.6587-0.12072 3.8629-0.36206 1.2227-0.2599 2.288-0.64967 3.1957-1.1695 0.92632-0.51981 1.6488-1.179 2.1675-1.9773 0.51874-0.79828 0.77811-1.7357 0.77811-2.8124h-6.058c0 0.38985-0.15752 0.7703-0.47246 1.1416-0.29642 0.3713-0.72245 0.67765-1.2782 0.91899-0.5558 0.22278-1.2043 0.33416-1.9454 0.33416-0.98189 0-1.7785-0.15784-2.3898-0.47344-0.59283-0.3156-1.0283-0.73317-1.3062-1.253-0.25936-0.53837-0.38896-1.1233-0.38896-1.7545v-0.55694c0-0.63119 0.1296-1.2066 0.38896-1.7264 0.25937-0.53837 0.66695-0.96527 1.2227-1.2809 0.57432-0.31559 1.3154-0.47344 2.2232-0.47344 0.74105 0 1.3803 0.10205 1.9175 0.30627 0.55579 0.20421 0.99112 0.49192 1.3061 0.8632 0.31494 0.35273 0.47246 0.752 0.47246 1.1975h6.3082c0-1.0396-0.25936-1.9494-0.77811-2.7291-0.51873-0.79827-1.2412-1.4573-2.1675-1.9771-0.92631-0.53837-1.9915-0.93747-3.1957-1.1974-1.2042-0.25991-2.4919-0.38995-3.8629-0.38995zm9.7013 20.141-1.5566 11.134c-0.18314 1.305 0.02031 2.3348 0.61042 3.0892 0.59013 0.73408 1.5364 1.1011 2.8387 1.1011 1.0378 0 2.0654-0.30588 3.0829-0.91761 0.88161-0.51966 1.8373-1.3071 2.8657-2.3565 0.0059 0.8803 0.23066 1.6049 0.67502 2.173 0.59012 0.73408 1.5262 1.1011 2.8082 1.1011 1.0581 0 2.1061-0.30588 3.1439-0.91761 0.94319-0.5745 1.9714-1.4385 3.0827-2.5857l-0.15239 3.1056h2.2587l2.1062-14.926h-2.9609l-1.333 9.741c-0.71441 0.62351-1.349 1.1607-1.8718 1.5761-0.56976 0.4486-1.0887 0.78507-1.5567 1.0094-0.46802 0.20391-0.97672 0.30575-1.5261 0.30575-0.75292 0-1.2515-0.17327-1.4957-0.51992-0.22384-0.36704-0.28489-0.93796-0.18315-1.7128l1.4652-10.399h-2.8387l-1.3457 9.6251c-0.77553 0.71613-1.4424 1.2982-1.9813 1.7225-0.56977 0.4486-1.0785 0.77498-1.5261 0.9789-0.44768 0.20391-0.93608 0.30575-1.4651 0.30575-0.65117 0-1.1293-0.16302-1.4346-0.48928-0.28489-0.34664-0.3664-0.92781-0.24431-1.7435l1.4652-10.399z" fill="#fff" stroke-width=".088055"/>
</svg>
