<svg xmlns="http://www.w3.org/2000/svg" width="479.48" height="282" viewBox="0 0 126.86 74.612"><g class="st2"><path fill="#3443ed" d="m64.718 54.815 9.173-9.414 9.755 9.506-9.173 9.413zM79.361 41.29l2.592-2.66c1.55-1.592 3.22-2.602 5.012-3.03 1.79-.427 3.641-.528 5.553-.306a58.03 58.03 0 0 1 5.872 1c2.004.446 3.94.804 5.807 1.07 1.866.27 3.628.235 5.286-.1 1.656-.336 3.15-1.187 4.48-2.551.664-.682 1.192-1.565 1.581-2.648s.508-2.342.356-3.776c-.154-1.434-.713-3.022-1.678-4.76s-2.518-3.65-4.655-5.733c-2.546-2.482-4.87-4.168-6.969-5.062-2.1-.893-3.98-1.285-5.638-1.173-1.661.11-3.094.49-4.296 1.132-1.206.645-2.117 1.286-2.737 1.922l-.93.955c-.311.319-.6.659-.863 1.021L80.426 9.08c.175-.271.429-.623.761-1.054.33-.43.784-.941 1.36-1.533 1.108-1.136 2.488-2.143 4.137-3.017 1.65-.874 3.54-1.472 5.668-1.791 2.128-.32 4.466-.215 7.01.313 2.542.529 5.251 1.616 8.124 3.262 2.872 1.647 5.855 3.976 8.948 6.99 3.001 2.924 5.281 5.724 6.843 8.398 1.561 2.673 2.592 5.164 3.094 7.47.5 2.305.618 4.415.351 6.326-.267 1.913-.796 3.591-1.585 5.038-.79 1.447-1.627 2.626-2.513 3.535-1.994 2.047-4.065 3.443-6.21 4.189-2.146.746-4.274 1.087-6.385 1.025a32.861 32.861 0 0 1-6.275-.794 5656.6 5656.6 0 0 1-5.774-1.306c-1.78-.404-3.399-.586-4.857-.544-1.46.041-2.677.563-3.65 1.563l-1.995 2.047z" class="st3" filter="grayscale(1)"/></g><path fill="#6c77f9" d="m55.82 43.156.622-3.275c.357-1.871 1.116-3.407 2.283-4.607 1.164-1.2 2.587-2.223 4.267-3.067a64.84 64.84 0 0 1 5.246-2.347c1.817-.72 3.537-1.443 5.163-2.169 1.623-.724 3.02-1.606 4.187-2.645 1.167-1.038 1.893-2.306 2.178-3.803.178-.936.116-1.883-.185-2.847-.302-.961-.888-1.88-1.754-2.757-.869-.876-2.059-1.667-3.572-2.376-1.513-.708-3.424-1.282-5.732-1.721-2.932-.558-5.362-.696-7.289-.417-1.928.279-3.454.83-4.58 1.649-1.126.82-1.965 1.744-2.514 2.769-.551 1.026-.91 1.977-1.075 2.85-.083.437-.164.857-.24 1.262a9.031 9.031 0 0 0-.148 1.28l-14.034-2.67c-.055-.398-.06-.883-.014-1.457.043-.573.138-1.234.28-1.983a16.14 16.14 0 0 1 2.236-5.634c1.11-1.759 2.568-3.307 4.374-4.645 1.805-1.336 3.996-2.405 6.573-3.209C54.668.535 57.612.094 60.924.012c3.312-.08 6.995.264 11.05 1.036 3.867.736 7.235 1.716 10.105 2.94 2.87 1.225 5.251 2.633 7.147 4.22 1.895 1.59 3.39 3.248 4.483 4.974 1.092 1.727 1.772 3.504 2.04 5.332a16.106 16.106 0 0 1-.1 5.362c-.486 2.558-1.378 4.7-2.676 6.423a16.314 16.314 0 0 1-4.63 4.21 37.639 37.639 0 0 1-5.568 2.77c-1.925.765-3.733 1.44-5.427 2.02-1.695.584-3.114 1.25-4.258 2.002-1.146.751-1.824 1.689-2.038 2.812l-.356 1.871zm-5.272 21.587 2.973-15.625 17.403 3.311-2.973 15.625z" class="st4" filter="grayscale(1)"/><path fill="#acb3ff" d="m25.917 49.46-.793-3.921c-.213-1.058.004-2.139.656-3.243.652-1.102 1.557-2.224 2.72-3.367a127.244 127.244 0 0 1 3.673-3.464 90.5 90.5 0 0 0 3.663-3.51c1.155-1.171 2.05-2.357 2.682-3.554.633-1.197.83-2.385.59-3.568-.188-.934-.561-1.733-1.116-2.398a4.948 4.948 0 0 0-2.095-1.471c-.841-.316-1.847-.485-3.018-.508-1.17-.021-2.472.112-3.903.4-2.054.416-3.709.962-4.965 1.636-1.258.676-2.175 1.428-2.75 2.256-.578.83-.922 1.692-1.033 2.59a8.242 8.242 0 0 0 .1 2.652c.087.436.187.853.301 1.25.113.4.244.811.395 1.233L1.419 36.436c-.25-.596-.463-1.169-.638-1.717a16.33 16.33 0 0 1-.452-1.755c-.491-2.428-.43-4.772.182-7.033.61-2.262 1.705-4.377 3.283-6.349 1.578-1.97 3.574-3.783 5.994-5.439 2.418-1.655 5.17-3.1 8.256-4.341 3.085-1.239 6.463-2.23 10.136-2.973 3.547-.717 6.912-1.137 10.094-1.263 3.18-.125 6.083.05 8.705.523 2.623.475 4.952 1.268 6.99 2.376 2.039 1.111 3.72 2.537 5.043 4.277 1.324 1.741 2.225 3.794 2.703 6.158.428 2.116.338 4.078-.269 5.885-.605 1.807-1.524 3.515-2.753 5.123a37.009 37.009 0 0 1-4.007 4.454 126.803 126.803 0 0 1-4.148 3.754c-1.324 1.142-2.37 2.213-3.141 3.21-.77.998-1.073 1.902-.91 2.71l.246 1.214zm3.433 25.153-3.888-19.231 24.366-4.926 3.888 19.231z" class="st5" filter="grayscale(1)"/></svg>