<?xml version="1.0" encoding="UTF-8"?>
<svg width="479.48" height="282" version="1.1" viewBox="0 0 126.86 74.612" xmlns="http://www.w3.org/2000/svg">
 <g transform="matrix(.06636 0 0 .06636 -68.002 -99.193)">
  <g class="st2" enable-background="new">
   <path class="st3" d="m2e3 2320.8 138.23-141.86 147 143.24-138.23 141.85zm220.66-203.82 39.06-40.09c23.37-23.98 48.53-39.2 75.53-45.64 26.98-6.44 54.87-7.97 83.67-4.63 28.8 3.35 58.28 8.38 88.5 15.09 30.19 6.71 59.36 12.1 87.5 16.12 28.12 4.05 54.67 3.53 79.66-1.53 24.95-5.05 47.47-17.88 67.5-38.43 10.02-10.28 17.97-23.58 23.84-39.9s7.65-35.29 5.36-56.9c-2.33-21.62-10.74-45.54-25.29-71.74s-37.94-55-70.14-86.38c-38.38-37.41-73.4-62.82-105.02-76.29-31.65-13.46-59.97-19.36-84.97-17.68-25.03 1.67-46.62 7.38-64.74 17.07-18.16 9.71-31.9 19.37-41.24 28.96-4.68 4.8-9.36 9.6-14.02 14.39-4.68 4.8-9.02 9.93-12.99 15.39l-116.16-113.19c2.64-4.09 6.46-9.39 11.47-15.88 4.97-6.49 11.81-14.19 20.5-23.1 16.69-17.12 37.48-32.29 62.34-45.47 24.86-13.17 53.34-22.18 85.41-26.99 32.07-4.82 67.29-3.23 105.62 4.72 38.32 7.97 79.14 24.35 122.44 49.16 43.27 24.81 88.22 59.91 134.83 105.33 45.23 44.07 79.59 86.25 103.13 126.55 23.52 40.29 39.05 77.82 46.62 112.56 7.54 34.75 9.31 66.54 5.29 95.34-4.03 28.82-12 54.12-23.88 75.92-11.92 21.8-24.53 39.57-37.88 53.27-30.05 30.84-61.26 51.88-93.58 63.12-32.34 11.25-64.41 16.39-96.22 15.45-31.82-0.95-63.34-4.92-94.55-11.97-31.22-7.04-60.23-13.61-87.02-19.68-26.82-6.09-51.21-8.82-73.19-8.19-21.99 0.62-40.33 8.48-55.01 23.55l-30.05 30.84z" fill="#3443ed" filter="grayscale(1)" />
  </g>
  <path class="st4" d="m1865.9 2145.1 9.39-49.35c5.37-28.2 16.82-51.34 34.4-69.43 17.54-18.08 38.98-33.49 64.3-46.21 25.3-12.72 51.64-24.51 79.05-35.37 27.38-10.86 53.31-21.75 77.8-32.68 24.47-10.91 45.52-24.21 63.1-39.86 17.59-15.64 28.53-34.75 32.82-57.31 2.68-14.1 1.75-28.38-2.79-42.9-4.55-14.49-13.38-28.34-26.43-41.55-13.09-13.2-31.02-25.12-53.82-35.81-22.8-10.66-51.6-19.32-86.38-25.93-44.19-8.41-80.8-10.49-109.84-6.29-29.06 4.21-52.05 12.51-69.02 24.85-16.96 12.37-29.61 26.28-37.89 41.73-8.3 15.47-13.7 29.79-16.2 42.94-1.25 6.59-2.46 12.93-3.62 19.03-1.17 6.12-1.91 12.56-2.22 19.3l-211.48-40.24c-0.83-6-0.9-13.32-0.22-21.96 0.66-8.64 2.09-18.6 4.23-29.88 5.73-30.07 16.95-58.36 33.69-84.9 16.73-26.51 38.7-49.84 65.91-70 27.2-20.14 60.22-36.25 99.05-48.36 38.83-12.08 83.2-18.73 133.1-19.97 49.91-1.21 105.4 3.98 166.52 15.61 58.27 11.09 109.02 25.86 152.27 44.31 43.24 18.46 79.13 39.67 107.7 63.59 28.55 23.95 51.07 48.94 67.56 74.95 16.45 26.03 26.7 52.81 30.73 80.36 4 27.56 3.52 54.5-1.49 80.8-7.34 38.55-20.78 70.81-40.33 96.79-19.55 26-42.82 47.14-69.78 63.43-26.98 16.3-54.95 30.23-83.91 41.74-29 11.54-56.25 21.7-81.77 30.46-25.55 8.79-46.93 18.83-64.17 30.16-17.27 11.32-27.49 25.45-30.71 42.37l-5.37 28.2zm-79.43 325.3 44.8-235.46 262.25 49.9-44.8 235.46z" fill="#6c77f9" filter="grayscale(1)" />
  <path class="st5" d="m1415.3 2240.1-11.95-59.09c-3.22-15.94 0.06-32.23 9.88-48.86 9.82-16.62 23.47-33.52 41-50.75 17.5-17.2 35.95-34.59 55.34-52.19 19.38-17.57 37.77-35.21 55.2-52.89 17.41-17.66 30.88-35.53 40.42-53.56 9.53-18.04 12.49-35.95 8.89-53.78-2.84-14.07-8.46-26.11-16.82-36.13-8.39-10.02-18.9-17.41-31.58-22.17-12.67-4.76-27.83-7.3-45.47-7.65-17.64-0.32-37.26 1.68-58.82 6.04-30.95 6.26-55.89 14.48-74.82 24.64-18.95 10.19-32.77 21.52-41.45 34-8.7 12.51-13.88 25.5-15.55 39.02-1.66 13.51-1.16 26.85 1.49 39.97 1.33 6.57 2.83 12.86 4.55 18.85 1.7 6.02 3.68 12.21 5.95 18.57l-295.43 59.72c-3.78-8.98-6.98-17.62-9.62-25.88-2.65-8.25-4.91-17.06-6.81-26.45-7.4-36.58-6.48-71.9 2.74-105.98 9.21-34.08 25.7-65.96 49.48-95.67 23.77-29.7 53.86-57.01 90.32-81.96 36.44-24.94 77.91-46.73 124.41-65.42 46.5-18.67 97.4-33.61 152.75-44.8 53.45-10.81 104.16-17.14 152.11-19.04 47.93-1.87 91.66 0.76 131.17 7.89 39.53 7.16 74.63 19.1 105.35 35.81 30.71 16.74 56.05 38.22 75.99 64.44 19.95 26.24 33.53 57.17 40.73 92.8 6.45 31.89 5.09 61.45-4.05 88.68-9.12 27.24-22.97 52.97-41.49 77.21-18.52 24.25-38.67 46.62-60.38 67.12-21.73 20.5-42.57 39.35-62.51 56.56-19.95 17.21-35.73 33.35-47.34 48.38-11.6 15.04-16.16 28.66-13.7 40.84l3.7 18.29zm51.73 379.04-58.59-289.8 367.18-74.23 58.59 289.8z" fill="#acb3ff" filter="grayscale(1)" />
 </g>
</svg>
