<?xml version="1.0" encoding="UTF-8" standalone="no"?>
<!-- Created with Inkscape (http://www.inkscape.org/) -->

<svg
   width="1000"
   height="1000"
   viewBox="0 0 264.58333 264.58333"
   version="1.1"
   id="svg11627"
   inkscape:version="1.2.2 (732a01da63, 2022-12-09)"
   sodipodi:docname="logo_background_dark.svg"
   inkscape:export-filename="..\..\favicon.png"
   inkscape:export-xdpi="6.1440001"
   inkscape:export-ydpi="6.1440001"
   xmlns:inkscape="http://www.inkscape.org/namespaces/inkscape"
   xmlns:sodipodi="http://sodipodi.sourceforge.net/DTD/sodipodi-0.dtd"
   xmlns="http://www.w3.org/2000/svg"
   xmlns:svg="http://www.w3.org/2000/svg">
  <sodipodi:namedview
     id="namedview11629"
     pagecolor="#505050"
     bordercolor="#eeeeee"
     borderopacity="1"
     inkscape:showpageshadow="0"
     inkscape:pageopacity="0"
     inkscape:pagecheckerboard="0"
     inkscape:deskcolor="#505050"
     inkscape:document-units="mm"
     showgrid="false"
     inkscape:zoom="0.31046226"
     inkscape:cx="159.43967"
     inkscape:cy="647.42168"
     inkscape:window-width="1600"
     inkscape:window-height="877"
     inkscape:window-x="-8"
     inkscape:window-y="-8"
     inkscape:window-maximized="1"
     inkscape:current-layer="layer1" />
  <defs
     id="defs11624"><inkscape:path-effect
   effect="powerclip"
   id="path-effect11819"
   is_visible="true"
   lpeversion="1"
   inverse="true"
   flatten="false"
   hide_clip="false"
   message="Use fill-rule evenodd on &lt;b&gt;fill and stroke&lt;/b&gt; dialog if no flatten result after convert clip to paths." />

		
		
		
	<clipPath
   clipPathUnits="userSpaceOnUse"
   id="clipPath11815">
  <path
     id="path11817"
     d="M 0,0 V 132.29166 C 0,59.229625 59.229625,0 132.29167,0 Z m 132.29167,0 c 73.06204,0 132.29166,59.229625 132.29166,132.29166 V 0 Z m 132.29166,132.29166 c 0,73.06205 -59.22962,132.29167 -132.29166,132.29167 v 0 H 264.58333 Z M 132.29167,264.58333 C 59.229625,264.58333 0,205.35371 0,132.29166 c 0,0 0,0 0,0 v 132.29167 z"
     style="display:none;stroke-width:0.264583" />
  <path
     id="lpe_path-effect11819"
     style="display:inline;stroke-width:0.264583"
     class="powerclip"
     d="M -4.999998,-5.0000007 H 269.58335 V 269.58334 H -4.999998 Z M 0,0 V 132.29166 C 0,59.229625 59.229625,0 132.29167,0 Z m 132.29167,0 c 73.06204,0 132.29166,59.229625 132.29166,132.29166 V 0 Z m 132.29166,132.29166 c 0,73.06205 -59.22962,132.29167 -132.29166,132.29167 v 0 H 264.58333 Z M 132.29167,264.58333 C 59.229625,264.58333 0,205.35371 0,132.29166 c 0,0 0,0 0,0 v 132.29167 z" />
</clipPath>
</defs>
  <g
     inkscape:label="Layer 1"
     inkscape:groupmode="layer"
     id="layer1">
    <g
       id="g11813"
       clip-path="url(#clipPath11815)"
       inkscape:path-effect="#path-effect11819">
      <rect
         id="rect14261"
         x="1.9690337e-06"
         y="-6.6348633e-07"
         class="st1"
         width="264.58334"
         height="264.58334"
         style="fill:#212ec9;stroke-width:0.264583"
         d="M 1.9690337e-6,-6.6348633e-7 H 264.58335 V 264.58334 H 1.9690337e-6 Z" />
      <path
         id="path1555"
         style="font-weight:900;font-stretch:expanded;font-size:315.918px;font-family:'Archivo Expanded';-inkscape-font-specification:'Archivo Expanded,  Heavy Expanded';fill:#ffffff;stroke-width:0.264583"
         d="m 175.70747,80.707318 v 60.600432 h 18.72342 v -22.65183 c 0,-1.8389 0.4178,-3.45519 1.25365,-4.8483 0.89159,-1.44883 2.09007,-2.56331 3.59463,-3.34346 1.56027,-0.83585 3.34346,-1.25368 5.34953,-1.25368 1.44883,0 2.67478,0.22291 3.67781,0.66871 1.05876,0.39008 1.92239,0.94732 2.59107,1.67172 0.66868,0.72443 1.16996,1.61602 1.50429,2.67478 0.33435,1.00303 0.50178,2.08954 0.50178,3.25974 v 23.82232 h 18.7234 v -26.07903 c 0,-4.17928 -0.75216,-7.68974 -2.25671,-10.53166 -1.44881,-2.84191 -3.65033,-4.959454 -6.60371,-6.352564 -2.89767,-1.448832 -6.54751,-2.173526 -10.94973,-2.173526 -2.06179,0 -4.09588,0.222912 -6.10195,0.668708 -2.00608,0.390075 -3.90073,1.030764 -5.68389,1.922357 -1.78319,0.891593 -3.42694,2.062055 -4.93149,3.510885 h -0.66868 V 80.707318 Z M 66.37668,82.797129 c -4.23504,0 -8.303207,0.334328 -12.203906,1.003036 -3.900694,0.668681 -7.355634,1.727703 -10.36474,3.176534 -3.009109,1.448832 -5.405019,3.343487 -7.188192,5.683912 -1.727454,2.340398 -2.591572,5.182102 -2.591572,8.525559 0,3.12058 0.613227,5.76736 1.839163,7.9406 1.281655,2.17326 2.981394,3.95645 5.098913,5.34956 2.173245,1.39311 4.569153,2.50759 7.188192,3.34346 2.674763,0.78015 5.433012,1.39337 8.274947,1.83917 2.841937,0.44579 5.572709,0.80761 8.191748,1.08622 2.674763,0.27863 5.070671,0.5855 7.188192,0.91985 2.173243,0.27863 3.872982,0.69644 5.098913,1.25367 1.28166,0.55724 1.922364,1.33739 1.922364,2.34043 0,0.7244 -0.278365,1.33712 -0.83561,1.83864 -0.501515,0.4458 -1.198208,0.80814 -2.089793,1.08675 -0.835863,0.27863 -1.810922,0.50152 -2.925402,0.66871 -1.058762,0.11144 -2.173259,0.19489 -3.343466,0.25061 H 66.37668 c -2.619039,0 -4.932005,-0.1389 -6.938076,-0.41754 -2.006071,-0.33435 -3.566366,-0.94758 -4.680852,-1.83917 -1.114483,-0.89156 -1.671733,-2.17299 -1.671733,-3.84471 v -0.50178 c 0,-0.22289 0.02799,-0.4458 0.08372,-0.66869 h -20.14451 c -0.05572,0.22289 -0.0832,0.4458 -0.0832,0.66869 v 0.41806 c 0,3.84498 0.919072,7.04901 2.757969,9.61234 1.838902,2.50759 4.374769,4.4857 7.606771,5.93453 3.232007,1.39306 6.993302,2.36865 11.284066,2.92589 4.290769,0.61299 8.915667,0.91935 13.875123,0.91935 6.018217,0 11.395789,-0.66871 16.132346,-2.0061 4.792285,-1.39311 8.55358,-3.56661 11.284067,-6.52002 2.78621,-2.95336 4.179589,-6.79812 4.179589,-11.53469 0,-3.00908 -0.641224,-5.54445 -1.922879,-7.60625 -1.225933,-2.06179 -2.925151,-3.76152 -5.098396,-5.09891 -2.117519,-1.33739 -4.513945,-2.36842 -7.188708,-3.09282 -2.619042,-0.78015 -5.349298,-1.36491 -8.191233,-1.75496 -2.841934,-0.44579 -5.600184,-0.80811 -8.274946,-1.08675 -2.619039,-0.2786 -5.015466,-0.5575 -7.188708,-0.83611 -2.117519,-0.33435 -3.817258,-0.78015 -5.098915,-1.33739 -1.225934,-0.55724 -1.838646,-1.33739 -1.838646,-2.340421 0,-0.668708 0.417807,-1.281404 1.25367,-1.838643 0.891585,-0.612987 2.228983,-1.086776 4.012158,-1.421103 1.783175,-0.334354 4.012168,-0.50128 6.686931,-0.50128 2.619039,0 4.736584,0.278368 6.352582,0.835607 1.616006,0.501518 2.785965,1.198219 3.510381,2.089812 0.724415,0.835871 1.086754,1.810918 1.086754,2.925388 v 0.33436 h 19.977076 v -1.00304 c 0,-3.232016 -0.835615,-5.962251 -2.507339,-8.191233 C 93.960013,90.041553 91.647566,88.202382 88.694181,86.809271 85.796522,85.41616 82.425043,84.413125 78.58007,83.800165 74.790824,83.131457 70.72317,82.797129 66.37668,82.797129 Z m 70.88095,13.373841 c -6.07396,0 -11.42351,0.836163 -16.04864,2.50788 -4.6251,1.67172 -8.24696,4.23505 -10.866,7.68996 -2.61904,3.39918 -3.92844,7.68971 -3.92844,12.87208 0,5.18237 1.3094,9.4729 3.92844,12.87209 2.61904,3.39918 6.2409,5.96251 10.866,7.68995 4.62513,1.67174 9.97468,2.50788 16.04864,2.50788 4.12359,0 7.99685,-0.36235 11.61892,-1.08678 3.67781,-0.78012 6.88183,-1.95008 9.61233,-3.51035 2.78623,-1.56031 4.95922,-3.53891 6.5195,-5.93506 1.5603,-2.39614 2.34042,-5.20986 2.34042,-8.44185 h -18.22161 c 0,1.1702 -0.47379,2.31217 -1.42111,3.42665 -0.89159,1.1145 -2.17302,2.03409 -3.84471,2.75849 -1.67174,0.66871 -3.62236,1.00304 -5.85134,1.00304 -2.95339,0 -5.34932,-0.47379 -7.1882,-1.42111 -1.78316,-0.94731 -3.09309,-2.20072 -3.92896,-3.761 -0.78012,-1.61599 -1.16993,-3.37171 -1.16993,-5.26634 v -1.67175 c 0,-1.8946 0.38981,-3.62182 1.16993,-5.1821 0.78015,-1.61599 2.0061,-2.8974 3.67782,-3.84471 1.72746,-0.94729 3.95644,-1.42111 6.68694,-1.42111 2.22896,0 4.15161,0.30634 5.7676,0.91933 1.67172,0.61296 2.98114,1.47656 3.92846,2.59103 0.94728,1.05879 1.42107,2.25724 1.42107,3.59463 h 18.97404 c 0,-3.12057 -0.78012,-5.85134 -2.34042,-8.19176 -1.56028,-2.39615 -3.73327,-4.37423 -6.5195,-5.9345 -2.78622,-1.615995 -5.99024,-2.813976 -9.61233,-3.5941 -3.62207,-0.78015 -7.49533,-1.17049 -11.61892,-1.17049 z m 29.18013,60.45576 -4.68188,33.41915 c -0.55086,3.91723 0.0611,7.00815 1.83605,9.2728 1.77501,2.20345 4.62127,3.30522 8.5385,3.30522 3.12155,0 6.21247,-0.91813 9.27283,-2.75434 2.65173,-1.55985 5.52619,-3.92355 8.61962,-7.07347 0.0177,2.64237 0.69379,4.81729 2.03036,6.52259 1.77501,2.20345 4.59049,3.30522 8.44653,3.30522 3.18275,0 6.33471,-0.91813 9.45626,-2.75434 2.83697,-1.72444 5.92976,-4.31794 9.2723,-7.76128 l -0.45837,9.3219 h 6.79389 l 6.33503,-44.80345 h -8.90593 l -4.00957,29.23902 c -2.14884,1.87156 -4.05771,3.48388 -5.63015,4.73099 -1.71376,1.34654 -3.27462,2.35651 -4.68239,3.0298 -1.40774,0.61206 -2.93782,0.91776 -4.59041,0.91776 -2.26468,0 -3.76447,-0.5201 -4.49895,-1.56062 -0.67328,-1.10173 -0.85691,-2.81543 -0.55089,-5.14131 l 4.40698,-31.21564 h -8.5385 l -4.04781,28.89125 c -2.33267,2.14958 -4.33842,3.89665 -5.95934,5.17023 -1.71379,1.34654 -3.24387,2.32624 -4.59042,2.93833 -1.34654,0.61206 -2.81559,0.91776 -4.40695,0.91776 -1.95863,0 -3.39688,-0.48932 -4.31498,-1.46865 -0.85691,-1.0405 -1.1021,-2.78498 -0.73486,-5.23328 l 4.40698,-31.21564 z"
         inkscape:original-d="m 175.70747,80.707318 v 60.600432 h 18.72342 v -22.65183 c 0,-1.8389 0.4178,-3.45519 1.25365,-4.8483 0.89159,-1.44883 2.09007,-2.56331 3.59463,-3.34346 1.56027,-0.83585 3.34346,-1.25368 5.34953,-1.25368 1.44883,0 2.67478,0.22291 3.67781,0.66871 1.05876,0.39008 1.92239,0.94732 2.59107,1.67172 0.66868,0.72443 1.16996,1.61602 1.50429,2.67478 0.33435,1.00303 0.50178,2.08954 0.50178,3.25974 v 23.82232 h 18.7234 v -26.07903 c 0,-4.17928 -0.75216,-7.68974 -2.25671,-10.53166 -1.44881,-2.84191 -3.65033,-4.959454 -6.60371,-6.352564 -2.89767,-1.448832 -6.54751,-2.173526 -10.94973,-2.173526 -2.06179,0 -4.09588,0.222912 -6.10195,0.668708 -2.00608,0.390075 -3.90073,1.030764 -5.68389,1.922357 -1.78319,0.891593 -3.42694,2.062055 -4.93149,3.510885 h -0.66868 V 80.707318 Z M 66.37668,82.797129 c -4.23504,0 -8.303207,0.334328 -12.203906,1.003036 -3.900694,0.668681 -7.355634,1.727703 -10.36474,3.176534 -3.009109,1.448832 -5.405019,3.343487 -7.188192,5.683912 -1.727454,2.340398 -2.591572,5.182102 -2.591572,8.525559 0,3.12058 0.613227,5.76736 1.839163,7.9406 1.281655,2.17326 2.981394,3.95645 5.098913,5.34956 2.173245,1.39311 4.569153,2.50759 7.188192,3.34346 2.674763,0.78015 5.433012,1.39337 8.274947,1.83917 2.841937,0.44579 5.572709,0.80761 8.191748,1.08622 2.674763,0.27863 5.070671,0.5855 7.188192,0.91985 2.173243,0.27863 3.872982,0.69644 5.098913,1.25367 1.28166,0.55724 1.922364,1.33739 1.922364,2.34043 0,0.7244 -0.278365,1.33712 -0.83561,1.83864 -0.501515,0.4458 -1.198208,0.80814 -2.089793,1.08675 -0.835863,0.27863 -1.810922,0.50152 -2.925402,0.66871 -1.058762,0.11144 -2.173259,0.19489 -3.343466,0.25061 H 66.37668 c -2.619039,0 -4.932005,-0.1389 -6.938076,-0.41754 -2.006071,-0.33435 -3.566366,-0.94758 -4.680852,-1.83917 -1.114483,-0.89156 -1.671733,-2.17299 -1.671733,-3.84471 v -0.50178 c 0,-0.22289 0.02799,-0.4458 0.08372,-0.66869 h -20.14451 c -0.05572,0.22289 -0.0832,0.4458 -0.0832,0.66869 v 0.41806 c 0,3.84498 0.919072,7.04901 2.757969,9.61234 1.838902,2.50759 4.374769,4.4857 7.606771,5.93453 3.232007,1.39306 6.993302,2.36865 11.284066,2.92589 4.290769,0.61299 8.915667,0.91935 13.875123,0.91935 6.018217,0 11.395789,-0.66871 16.132346,-2.0061 4.792285,-1.39311 8.55358,-3.56661 11.284067,-6.52002 2.78621,-2.95336 4.179589,-6.79812 4.179589,-11.53469 0,-3.00908 -0.641224,-5.54445 -1.922879,-7.60625 -1.225933,-2.06179 -2.925151,-3.76152 -5.098396,-5.09891 -2.117519,-1.33739 -4.513945,-2.36842 -7.188708,-3.09282 -2.619042,-0.78015 -5.349298,-1.36491 -8.191233,-1.75496 -2.841934,-0.44579 -5.600184,-0.80811 -8.274946,-1.08675 -2.619039,-0.2786 -5.015466,-0.5575 -7.188708,-0.83611 -2.117519,-0.33435 -3.817258,-0.78015 -5.098915,-1.33739 -1.225934,-0.55724 -1.838646,-1.33739 -1.838646,-2.340421 0,-0.668708 0.417807,-1.281404 1.25367,-1.838643 0.891585,-0.612987 2.228983,-1.086776 4.012158,-1.421103 1.783175,-0.334354 4.012168,-0.50128 6.686931,-0.50128 2.619039,0 4.736584,0.278368 6.352582,0.835607 1.616006,0.501518 2.785965,1.198219 3.510381,2.089812 0.724415,0.835871 1.086754,1.810918 1.086754,2.925388 v 0.33436 h 19.977076 v -1.00304 c 0,-3.232016 -0.835615,-5.962251 -2.507339,-8.191233 C 93.960013,90.041553 91.647566,88.202382 88.694181,86.809271 85.796522,85.41616 82.425043,84.413125 78.58007,83.800165 74.790824,83.131457 70.72317,82.797129 66.37668,82.797129 Z m 70.88095,13.373841 c -6.07396,0 -11.42351,0.836163 -16.04864,2.50788 -4.6251,1.67172 -8.24696,4.23505 -10.866,7.68996 -2.61904,3.39918 -3.92844,7.68971 -3.92844,12.87208 0,5.18237 1.3094,9.4729 3.92844,12.87209 2.61904,3.39918 6.2409,5.96251 10.866,7.68995 4.62513,1.67174 9.97468,2.50788 16.04864,2.50788 4.12359,0 7.99685,-0.36235 11.61892,-1.08678 3.67781,-0.78012 6.88183,-1.95008 9.61233,-3.51035 2.78623,-1.56031 4.95922,-3.53891 6.5195,-5.93506 1.5603,-2.39614 2.34042,-5.20986 2.34042,-8.44185 h -18.22161 c 0,1.1702 -0.47379,2.31217 -1.42111,3.42665 -0.89159,1.1145 -2.17302,2.03409 -3.84471,2.75849 -1.67174,0.66871 -3.62236,1.00304 -5.85134,1.00304 -2.95339,0 -5.34932,-0.47379 -7.1882,-1.42111 -1.78316,-0.94731 -3.09309,-2.20072 -3.92896,-3.761 -0.78012,-1.61599 -1.16993,-3.37171 -1.16993,-5.26634 v -1.67175 c 0,-1.8946 0.38981,-3.62182 1.16993,-5.1821 0.78015,-1.61599 2.0061,-2.8974 3.67782,-3.84471 1.72746,-0.94729 3.95644,-1.42111 6.68694,-1.42111 2.22896,0 4.15161,0.30634 5.7676,0.91933 1.67172,0.61296 2.98114,1.47656 3.92846,2.59103 0.94728,1.05879 1.42107,2.25724 1.42107,3.59463 h 18.97404 c 0,-3.12057 -0.78012,-5.85134 -2.34042,-8.19176 -1.56028,-2.39615 -3.73327,-4.37423 -6.5195,-5.9345 -2.78622,-1.615995 -5.99024,-2.813976 -9.61233,-3.5941 -3.62207,-0.78015 -7.49533,-1.17049 -11.61892,-1.17049 z m 29.18013,60.45576 -4.68188,33.41915 c -0.55086,3.91723 0.0611,7.00815 1.83605,9.2728 1.77501,2.20345 4.62127,3.30522 8.5385,3.30522 3.12155,0 6.21247,-0.91813 9.27283,-2.75434 2.65173,-1.55985 5.52619,-3.92355 8.61962,-7.07347 0.0177,2.64237 0.69379,4.81729 2.03036,6.52259 1.77501,2.20345 4.59049,3.30522 8.44653,3.30522 3.18275,0 6.33471,-0.91813 9.45626,-2.75434 2.83697,-1.72444 5.92976,-4.31794 9.2723,-7.76128 l -0.45837,9.3219 h 6.79389 l 6.33503,-44.80345 h -8.90593 l -4.00957,29.23902 c -2.14884,1.87156 -4.05771,3.48388 -5.63015,4.73099 -1.71376,1.34654 -3.27462,2.35651 -4.68239,3.0298 -1.40774,0.61206 -2.93782,0.91776 -4.59041,0.91776 -2.26468,0 -3.76447,-0.5201 -4.49895,-1.56062 -0.67328,-1.10173 -0.85691,-2.81543 -0.55089,-5.14131 l 4.40698,-31.21564 h -8.5385 l -4.04781,28.89125 c -2.33267,2.14958 -4.33842,3.89665 -5.95934,5.17023 -1.71379,1.34654 -3.24387,2.32624 -4.59042,2.93833 -1.34654,0.61206 -2.81559,0.91776 -4.40695,0.91776 -1.95863,0 -3.39688,-0.48932 -4.31498,-1.46865 -0.85691,-1.0405 -1.1021,-2.78498 -0.73486,-5.23328 l 4.40698,-31.21564 z" />
    </g>
  </g>
</svg>
