<svg xmlns="http://www.w3.org/2000/svg" width="250" height="153.51" viewBox="0 0 66.146 40.616"><path fill="#fff" d="M47.464 0v20.189h6.225v-7.546c0-.613.139-1.152.417-1.616A3.004 3.004 0 0 1 55.3 9.914c.519-.279 1.111-.418 1.778-.418.482 0 .89.074 1.223.223.352.13.64.315.861.557.223.24.39.538.5.89.112.335.167.697.167 1.087v7.936h6.225v-8.688c0-1.392-.25-2.562-.75-3.509-.482-.947-1.214-1.652-2.196-2.116-.963-.483-2.176-.724-3.64-.724-.685 0-1.362.074-2.029.223a7.325 7.325 0 0 0-1.89.64 6.636 6.636 0 0 0-1.639 1.17h-.222V0zM11.116.696c-1.408 0-2.76.112-4.057.334-1.297.223-2.446.576-3.446 1.059-1 .482-1.797 1.114-2.39 1.893C.649 4.762.36 5.71.36 6.822c0 1.04.204 1.922.612 2.646a5.371 5.371 0 0 0 1.695 1.782c.722.464 1.519.836 2.39 1.114.889.26 1.806.464 2.75.613.946.148 1.854.269 2.724.362.89.092 1.686.195 2.39.306.723.093 1.288.232 1.695.418.426.185.64.445.64.78a.794.794 0 0 1-.278.612c-.167.149-.399.27-.695.362a5.823 5.823 0 0 1-.973.223c-.352.037-.722.065-1.111.083h-1.084c-.87 0-1.64-.046-2.307-.139-.667-.111-1.185-.315-1.556-.612-.37-.297-.556-.724-.556-1.281v-.168c0-.074.01-.148.028-.222H.028a.917.917 0 0 0-.028.222v.14c0 1.28.306 2.348.917 3.202.611.835 1.454 1.494 2.53 1.977 1.074.464 2.324.79 3.75.975a32.61 32.61 0 0 0 4.614.306c2 0 3.788-.223 5.363-.668 1.593-.464 2.844-1.188 3.751-2.172.927-.984 1.39-2.265 1.39-3.843 0-1.003-.213-1.847-.64-2.534a4.952 4.952 0 0 0-1.694-1.699 8.699 8.699 0 0 0-2.39-1.03c-.87-.26-1.779-.455-2.723-.585a53.514 53.514 0 0 0-2.752-.362c-.87-.093-1.667-.186-2.39-.278-.704-.112-1.269-.26-1.695-.446-.407-.186-.611-.446-.611-.78 0-.222.139-.427.417-.612.296-.204.74-.362 1.334-.474.592-.111 1.334-.167 2.223-.167.87 0 1.575.093 2.112.279.537.167.926.399 1.167.696.24.278.361.603.361.975v.11h6.642V6.6c0-1.077-.278-1.987-.834-2.73-.556-.76-1.324-1.373-2.306-1.837-.964-.464-2.085-.798-3.363-1.003a23.308 23.308 0 0 0-4.057-.334zm23.565 4.456c-2.02 0-3.798.278-5.336.835-1.537.557-2.741 1.411-3.612 2.562-.87 1.133-1.306 2.562-1.306 4.288 0 1.727.435 3.156 1.306 4.289.87 1.132 2.075 1.986 3.612 2.562 1.538.557 3.317.835 5.336.835 1.37 0 2.659-.12 3.863-.362 1.223-.26 2.288-.65 3.196-1.17.926-.52 1.648-1.178 2.167-1.977.519-.798.778-1.735.778-2.812h-6.058c0 .39-.157.77-.472 1.141-.297.372-.723.678-1.278.92-.556.222-1.205.334-1.946.334-.982 0-1.778-.158-2.39-.474-.592-.315-1.028-.733-1.306-1.253a3.99 3.99 0 0 1-.389-1.754v-.557c0-.631.13-1.207.39-1.727.259-.538.666-.965 1.222-1.28.574-.316 1.315-.474 2.223-.474.741 0 1.38.102 1.918.306.555.204.99.492 1.306.863.315.353.472.752.472 1.198h6.308c0-1.04-.26-1.95-.778-2.73-.519-.797-1.241-1.456-2.167-1.976-.927-.539-1.992-.938-3.196-1.198a18.287 18.287 0 0 0-3.863-.39zm9.701 20.14-1.556 11.135c-.183 1.305.02 2.335.61 3.089.59.734 1.537 1.101 2.839 1.101 1.038 0 2.065-.306 3.083-.918.881-.52 1.837-1.307 2.865-2.356.006.88.231 1.605.675 2.173.59.734 1.527 1.101 2.809 1.101 1.058 0 2.106-.306 3.144-.918.943-.574 1.97-1.438 3.082-2.585l-.152 3.105h2.259l2.106-14.926h-2.961l-1.333 9.741a55.383 55.383 0 0 1-1.872 1.576c-.57.449-1.089.785-1.557 1.01a3.779 3.779 0 0 1-1.526.306c-.753 0-1.251-.174-1.495-.52-.224-.367-.285-.938-.184-1.713l1.466-10.4h-2.84L52.5 34.92a34.972 34.972 0 0 1-1.981 1.722c-.57.449-1.079.775-1.526.98a3.492 3.492 0 0 1-1.465.305c-.651 0-1.13-.163-1.435-.49-.285-.346-.366-.927-.244-1.743l1.465-10.399z"/></svg>