<?xml version="1.0" encoding="UTF-8"?>
<!-- Created with Inkscape (http://www.inkscape.org/) -->
<svg width="693.12" height="105.6" version="1.1" viewBox="0 0 183.39 27.941" xmlns="http://www.w3.org/2000/svg">
 <g transform="matrix(.26458 0 0 .26458 -487.96 58.126)">
  <g transform="matrix(.25 0 0 .25 1333 -787.06)" opacity=".75">
   <g transform="translate(-38.135)">
    <path d="m4412.9 2604.8v16.074c0 2.356 0.039 4.6751 0.1153 6.9551 0.052 1.5206 0.1789 3.04 0.3398 4.5606-2.4169-1.5881-5.0373-2.7693-7.8652-3.5352-3.648-1.064-7.3719-1.5957-11.172-1.5957-4.712 0-8.6635 0.9123-11.856 2.7363-3.116 1.748-5.4723 4.7499-7.0683 9.0059-1.52 4.18-2.2793 9.9561-2.2793 17.328 0 9.652 1.5186 17.023 4.5586 22.115 3.04 5.016 8.1333 7.5235 15.277 7.5235 4.94 0 9.2721-1.0261 12.996-3.0781 3.3743-1.8896 6.2662-4.1095 8.6816-6.6582l1.2364 8.3691h10.83v-79.801zm263.46 0v79.801h13.793v-39.258c3.5363-2.0028 6.634-3.566 9.2344-4.6328 2.964-1.216 5.852-1.8243 8.664-1.8243 2.508 0 4.2562 0.571 5.2442 1.711 1.064 1.14 1.5957 3.2295 1.5957 6.2695v37.734h13.908v-41.951c0-10.26-5.2072-15.391-15.619-15.391-4.18 0-8.4356 0.9496-12.768 2.8496-3.6856 1.6454-7.3709 3.8921-11.057 6.7344 0.1825-1.0883 0.3354-2.2662 0.4551-3.543 0.304-2.508 0.4551-5.1665 0.4551-7.9785l-0.1133-20.522zm127 0v79.801h13.793v-39.258c3.5363-2.0028 6.6339-3.566 9.2343-4.6328 2.964-1.216 5.8521-1.8243 8.6641-1.8243 2.508 0 4.2562 0.571 5.2442 1.711 1.064 1.14 1.5957 3.2295 1.5957 6.2695v37.734h13.908v-41.951c0-10.26-5.2072-15.391-15.619-15.391-4.18 0-8.4356 0.9496-12.768 2.8496-3.6856 1.6454-7.3709 3.8921-11.057 6.7344 0.1825-1.0883 0.3354-2.2662 0.4551-3.543 0.304-2.508 0.4551-5.1665 0.4551-7.9785l-0.1133-20.522zm-226.97 7.8672v16.012l-9.918 0.5176v9.0059h9.918v32.262c0 4.94 1.3302 8.7404 3.9902 11.4 2.736 2.584 6.5364 3.8769 11.4 3.8769 1.216 0 2.6973-0.077 4.4453-0.2285 1.748-0.076 3.5335-0.2663 5.3575-0.5703s3.3818-0.6454 4.6738-1.0254l-1.4805-9.6895h-7.7519c-2.508 0-4.2954-0.4944-5.3594-1.4824-0.988-1.064-1.4824-2.7356-1.4824-5.0156v-29.527h16.644v-9.5762h-16.644v-15.959zm-251.6 4.2168c-6.232 0-11.4 0.2668-15.504 0.7988s-7.4492 1.5209-10.033 2.9649c-2.508 1.444-4.4072 3.5335-5.6992 6.2695s-2.1278 6.3461-2.5078 10.83c-0.38 4.408-0.5703 9.88-0.5703 16.416 0 6.612 0.2276 12.198 0.6836 16.758s1.4056 8.2466 2.8496 11.059c1.444 2.736 3.5728 4.8255 6.3848 6.2695 2.888 1.444 6.6491 2.4309 11.285 2.9629 4.712 0.532 10.565 0.7616 17.557 0.6856 5.168 0 10.336-0.1158 15.504-0.3438s10.336-0.5301 15.504-0.9101v-9.3496h-31.121c-4.56 0-8.3997-0.075-11.516-0.2266-3.1159-0.228-5.6234-0.7617-7.5234-1.5977s-3.344-2.2035-4.332-4.1035-1.6708-4.5605-2.0508-7.9805c-0.304-3.4959-0.457-7.9026-0.457-13.223 0-6.46 0.2276-11.514 0.6836-15.162 0.532-3.648 1.5208-6.3085 2.9648-7.9805s3.5728-2.6981 6.3848-3.0781c2.888-0.38 6.7256-0.5703 11.514-0.5703h14.25c3.344 0 5.5847 0.5709 6.7247 1.7109 1.216 1.14 1.8242 3.0392 1.8242 5.6992v3.9903h-21.432c-4.56 0-8.0563 1.1026-10.488 3.3066-2.4319 2.128-3.6484 5.0906-3.6484 8.8906v5.586c0 3.04 0.6847 5.5866 2.0527 7.6386s3.23 3.6099 5.586 4.6739 5.0537 1.5957 8.0937 1.5957c3.116 0 6.0433-0.4552 8.7793-1.3672 2.736-0.988 5.167-2.2045 7.295-3.6485s3.8761-2.8488 5.2441-4.2167l1.1406 8.0937h10.26v-34.772c0-6.46-1.6344-11.02-4.9024-13.68s-7.9042-3.9902-13.908-3.9902zm310.33 10.369c-4.6218 0.042-8.4275 0.4618-11.42 1.2598-3.344 0.912-5.8141 2.5071-7.4101 4.7871-1.52 2.28-2.2813 5.4722-2.2813 9.5762 0 3.04 0.4179 5.6239 1.2539 7.7519 0.836 2.052 2.2055 3.8002 4.1055 5.2442 1.9 1.368 4.5585 2.5079 7.9785 3.4199l14.936 3.6484c2.736 0.684 4.7863 1.4061 6.1543 2.1661 1.444 0.6839 2.166 2.0907 2.166 4.2187 0 1.672-0.4179 2.963-1.2539 3.875-0.836 0.836-2.3546 1.4069-4.5586 1.7109-2.128 0.228-5.2064 0.3418-9.2344 0.3418h-7.4101c-2.356 0-4.5986-0.039-6.7266-0.1152-2.052-0.076-3.8374-0.1133-5.3574-0.1133l-0.9121 9.0059c5.168 0.836 9.918 1.3304 14.25 1.4824 4.332 0.228 7.6007 0.3418 9.8046 0.3418 5.7 0 10.374-0.4179 14.022-1.2539 3.724-0.912 6.4218-2.5464 8.0938-4.9024 1.748-2.432 2.6211-5.9655 2.6211-10.602 0-4.788-1.1007-8.3216-3.3047-10.602-2.128-2.356-5.5105-4.1041-10.146-5.2441l-15.275-3.5352c-2.736-0.684-4.7117-1.3668-5.9277-2.0508-1.216-0.76-1.8242-2.2432-1.8242-4.4472 0-1.824 0.3414-3.115 1.0254-3.875 0.76-0.76 2.0137-1.2172 3.7617-1.3692 1.824-0.152 4.2941-0.2265 7.4101-0.2265 3.496 0 7.0296 0.074 10.602 0.2265l10.945 0.2286 0.9121-9.0059c-2.28-0.456-4.8639-0.7974-7.7519-1.0254-2.888-0.304-5.8526-0.5316-8.8926-0.6836-2.964-0.152-5.7383-0.2285-8.3223-0.2285-0.6935-0.01-1.371-0.012-2.0312-0.01zm127 0c-4.6218 0.042-8.4275 0.4618-11.42 1.2598-3.344 0.912-5.8141 2.5071-7.4101 4.7871-1.52 2.28-2.2813 5.4722-2.2813 9.5762 0 3.04 0.4179 5.6239 1.2539 7.7519 0.836 2.052 2.2055 3.8002 4.1055 5.2442 1.9 1.368 4.5585 2.5079 7.9785 3.4199l14.936 3.6484c2.736 0.684 4.7863 1.4061 6.1543 2.1661 1.444 0.6839 2.166 2.0907 2.166 4.2187 0 1.672-0.4179 2.963-1.2539 3.875-0.836 0.836-2.3546 1.4069-4.5586 1.7109-2.128 0.228-5.2064 0.3418-9.2344 0.3418h-7.4102c-2.3559 0-4.5985-0.039-6.7265-0.1152-2.052-0.076-3.8374-0.1133-5.3574-0.1133l-0.9121 9.0059c5.1679 0.836 9.918 1.3304 14.25 1.4824 4.332 0.228 7.6006 0.3418 9.8046 0.3418 5.7 0 10.374-0.4179 14.022-1.2539 3.724-0.912 6.4218-2.5464 8.0938-4.9024 1.748-2.432 2.6211-5.9655 2.6211-10.602 0-4.788-1.1007-8.3216-3.3047-10.602-2.128-2.356-5.5105-4.1041-10.146-5.2441l-15.275-3.5352c-2.736-0.684-4.7117-1.3668-5.9277-2.0508-1.216-0.76-1.8242-2.2432-1.8242-4.4472 0-1.824 0.3413-3.115 1.0253-3.875 0.76-0.76 2.0138-1.2172 3.7618-1.3692 1.824-0.152 4.2941-0.2265 7.4101-0.2265 3.496 0 7.0296 0.074 10.602 0.2265l10.945 0.2286 0.9121-9.0059c-2.28-0.456-4.864-0.7974-7.7519-1.0254-2.888-0.304-5.8526-0.5316-8.8926-0.6836-2.964-0.152-5.7383-0.2285-8.3223-0.2285-0.6935-0.01-1.371-0.012-2.0312-0.01zm-294.82 0.01c-6.46 0-11.742 0.9124-15.846 2.7364-4.028 1.824-6.9925 4.9023-8.8925 9.2343-1.824 4.256-2.7364 10.07-2.7364 17.441 0 6.84 0.9124 12.426 2.7364 16.758 1.9 4.332 4.9018 7.5241 9.0058 9.5761 4.18 1.976 9.6893 2.9629 16.529 2.9629 2.508 0 5.1685-0.1511 7.9805-0.4551 2.888-0.228 5.6623-0.6086 8.3222-1.1406 2.66-0.532 5.0164-1.2148 7.0684-2.0508l-1.3691-8.7793c-3.42 0.38-6.9909 0.6841-10.715 0.9121-3.648 0.228-6.8794 0.3418-9.6914 0.3418-3.8 0-6.8391-0.4924-9.1191-1.4804-2.28-1.064-3.9144-3.0025-4.9024-5.8145-0.5688-1.6191-0.9676-3.6428-1.209-6.0429h22.527c5.7 0 9.7653-1.2911 12.197-3.875 2.508-2.66 3.7244-6.537 3.6484-11.629-0.076-6.1559-2.089-10.792-6.041-13.908-3.952-3.192-10.45-4.7871-19.494-4.7871zm37.619 1.3672v42.066c0 10.26 5.2071 15.391 15.619 15.391 4.256 0 8.3586-0.8751 12.311-2.6231 3.6422-1.611 7.4159-3.9414 11.316-6.9727l1.1093 8.1133h10.945v-55.975h-13.795v39.676c-3.2014 1.871-5.9941 3.3303-8.3222 4.3281-2.66 1.14-5.3185 1.7109-7.9785 1.7109s-4.5985-0.6082-5.8145-1.8242c-1.14-1.216-1.6717-3.231-1.5957-6.043v-37.848zm-37.049 8.8926c4.1039 0 6.9901 0.6082 8.6621 1.8242 1.748 1.216 2.6603 3.3821 2.7363 6.4981 0 1.976-0.3787 3.6476-1.1387 5.0156-0.684 1.368-2.3183 2.0527-4.9023 2.0527h-18.984c0.1174-3.5836 0.471-6.4599 1.0859-8.5508 0.836-2.584 2.2428-4.3694 4.2188-5.3574s4.7503-1.4824 8.3223-1.4824zm-69.199 0.2285c2.888 0 5.5112 0.3041 7.8672 0.9121 1.8848 0.4864 4.109 1.1001 6.3828 1.7324v28.115c-1.5817 1.0746-3.0588 2.0589-4.332 2.8691-1.672 1.064-3.3063 1.8626-4.9023 2.3946-1.596 0.456-3.4187 0.6835-5.4707 0.6835-2.508 0-4.5995-0.4944-6.2715-1.4824-1.596-1.064-2.7732-2.8867-3.5332-5.4707-0.76-2.66-1.1407-6.4231-1.1407-11.287 0-5.092 0.3807-8.9669 1.1407-11.627 0.836-2.66 2.0524-4.4455 3.6484-5.3575 1.672-0.988 3.8753-1.4824 6.6113-1.4824zm-51.072 8.0938v8.7773c-1.444 1.292-3.1157 2.3946-5.0157 3.3066-1.824 0.836-3.7232 1.5208-5.6992 2.0528-1.976 0.456-3.8771 0.6836-5.7011 0.6836-2.128 0-3.7624-0.4944-4.9024-1.4824s-1.709-2.5851-1.709-4.7891v-2.5078c0-1.9 0.4945-3.2675 1.4824-4.1035 0.988-0.912 2.6224-1.4065 4.9024-1.4825z" fill="#fff"/>
    <g transform="matrix(.5 0 0 .5 1143.4 .39535)">
     <rect class="st1" x="6311.5" y="4546.2" width="512" height="512" fill="none"/>
     <path class="st2" d="m6567.5 4687.3c-63.6 0-114.9 51.3-114.9 114.9s51.3 114.9 114.9 114.9 114.9-51.3 114.9-114.9-51.3-114.9-114.9-114.9zm0 189.6c-41.1 0-74.7-33.5-74.7-74.7s33.5-74.7 74.7-74.7 74.7 33.5 74.7 74.7-33.6 74.7-74.7 74.7zm146.4-194.3c0 14.9-12 26.8-26.8 26.8-14.9 0-26.8-12-26.8-26.8s12-26.8 26.8-26.8 26.8 12 26.8 26.8zm76.1 27.2c-1.7-35.9-9.9-67.7-36.2-93.9-26.2-26.2-58-34.4-93.9-36.2-37-2.1-147.9-2.1-184.9 0-35.8 1.7-67.6 9.9-93.9 36.1s-34.4 58-36.2 93.9c-2.1 37-2.1 147.9 0 184.9 1.7 35.9 9.9 67.7 36.2 93.9s58 34.4 93.9 36.2c37 2.1 147.9 2.1 184.9 0 35.9-1.7 67.7-9.9 93.9-36.2 26.2-26.2 34.4-58 36.2-93.9 2.1-37 2.1-147.8 0-184.8zm-47.8 224.5c-7.8 19.6-22.9 34.7-42.6 42.6-29.5 11.7-99.5 9-132.1 9s-102.7 2.6-132.1-9c-19.6-7.8-34.7-22.9-42.6-42.6-11.7-29.5-9-99.5-9-132.1s-2.6-102.7 9-132.1c7.8-19.6 22.9-34.7 42.6-42.6 29.5-11.7 99.5-9 132.1-9s102.7-2.6 132.1 9c19.6 7.8 34.7 22.9 42.6 42.6 11.7 29.5 9 99.5 9 132.1s2.7 102.7-9 132.1z" fill="#fcfcfe"/>
    </g>
    <g transform="matrix(.5 0 0 .5 1081.4 4.7752)">
     <rect class="st1" x="7019.3" y="4529.4" width="512" height="512" fill="none"/>
     <path class="st3" d="m7498 4631.8-67.6 318.8c-5.1 22.5-18.4 28.1-37.3 17.5l-103-75.9-49.7 47.8c-5.5 5.5-10.1 10.1-20.7 10.1l7.4-104.9 190.9-172.5c8.3-7.4-1.8-11.5-12.9-4.1l-236 148.6-101.6-31.8c-22.1-6.9-22.5-22.1 4.6-32.7l397.4-153.1c18.4-6.9 34.5 4.1 28.5 32.2z" fill="#fff"/>
    </g>
   </g>
   <path d="m2524.1 2272.7v206.71h52.748v-78.408c0-7.2232 1.8064-13.496 5.4179-18.818 3.8017-5.5125 8.7435-9.7889 14.826-12.83 6.2728-3.0412 13.116-4.5625 20.529-4.5625 5.3224 0 9.979 0.6656 13.971 1.9962 4.1817 1.3306 7.6024 3.3251 10.264 5.9863 2.8513 2.4711 4.9429 5.7036 6.2735 9.6953 1.5206 3.8016 2.2812 8.2681 2.2812 13.4v83.541h52.463v-90.67c0-14.066-2.4719-25.756-7.4141-35.07-4.7521-9.5041-11.976-16.536-21.67-21.098-9.6942-4.7521-21.86-7.1289-36.496-7.1289-7.0331 0-14.065 0.7606-21.098 2.2813-7.0332 1.3306-13.686 3.7054-19.959 7.1269-6.2728 3.2314-12.07 7.6048-17.393 13.117h-1.9961v-75.274zm-360.97 7.1289c-15.207 0-29.274 1.2341-42.199 3.7051-12.926 2.281-24.14 5.8938-33.645 10.836-9.5041 4.9422-16.916 11.215-22.238 18.818-5.1323 7.4132-7.6993 16.346-7.6993 26.801 0 10.264 2.1867 19.009 6.5586 26.232 4.3719 7.2231 10.264 13.116 17.678 17.678 7.4132 4.562 15.776 8.2679 25.09 11.119 9.3141 2.6611 18.914 4.8479 28.799 6.5586 9.8844 1.5207 19.388 2.8497 28.512 3.9902 9.314 1.1405 17.678 2.4716 25.092 3.9922 7.6033 1.3306 13.496 3.2321 17.678 5.7031 4.3719 2.2811 6.5566 5.4165 6.5566 9.4082 0 3.0414-1.0458 5.6083-3.1367 7.6992-1.9008 1.9009-4.656 3.5172-8.2676 4.8477-3.4215 1.3306-7.3175 2.3764-11.689 3.1367-4.3719 0.5703-8.9354 1.0437-13.688 1.4239-4.562 0.19-9.0285 0.2851-13.4 0.2851-10.835 0-20.243-0.6636-28.227-1.9941-7.9835-1.3306-14.256-3.6124-18.818-6.8438-4.3719-3.4215-6.5586-8.0781-6.5586-13.971v-2.5664l0.5703-2.2812h-57.025c-0.1901 0.5702-0.2852 1.1407-0.2852 1.7109v1.4258c0 13.116 2.9473 23.95 8.8399 32.504s14.065 15.207 24.52 19.959 22.62 8.0776 36.496 9.9785 28.799 2.8516 44.766 2.8516c20.529 0 38.682-2.1868 54.459-6.5586 15.967-4.3719 28.513-11.403 37.637-21.098 9.124-9.6942 13.686-22.43 13.686-38.207 0-10.074-2.1867-18.534-6.5586-25.377-4.3719-7.033-10.264-12.736-17.678-17.107-7.4133-4.5619-15.776-8.1728-25.09-10.834-9.124-2.6612-18.724-4.7528-28.799-6.2734-9.8843-1.5207-19.483-2.8517-28.797-3.9922-9.124-1.1405-17.393-2.3745-24.807-3.7051-7.4133-1.3306-13.306-3.0419-17.678-5.1328-4.3719-2.281-6.5566-5.3233-6.5566-9.125 0-3.0414 1.7094-5.7014 5.1309-7.9824 3.4214-2.4711 8.7436-4.3726 15.967-5.7031 7.2231-1.5207 16.443-2.2812 27.658-2.2812 9.3141 0 17.203 0.9507 23.666 2.8515 6.6529 1.7107 11.69 4.1826 15.111 7.414 3.4215 3.0413 5.1309 6.5571 5.1309 10.549v2.2814h56.17v-3.9923c0-9.8843-2.47-18.437-7.4121-25.66-4.7521-7.4133-11.69-13.496-20.814-18.248-8.9339-4.9421-19.768-8.65-32.504-11.121-12.546-2.471-26.612-3.7051-42.199-3.7051zm234.66 45.619c-20.149 0-37.732 2.9453-52.748 8.8379-14.826 5.7025-26.326 14.352-34.5 25.947-7.9835 11.595-11.975 26.232-11.975 43.91s3.9911 32.313 11.975 43.908c8.1736 11.595 19.674 20.34 34.5 26.232 15.017 5.7024 32.599 8.5527 52.748 8.5527 13.116 0 25.376-1.236 36.781-3.7071 11.595-2.6612 21.669-6.5572 30.223-11.689 8.7438-5.3223 15.587-11.976 20.529-19.959 4.9421-7.9835 7.4141-17.392 7.4141-28.227h-51.324c0 5.1323-1.8995 9.884-5.7011 14.256-3.6116 4.1818-8.5535 7.5074-14.826 9.9785s-13.306 3.707-21.1 3.707c-10.645 0-19.484-1.7113-26.518-5.1328-6.843-3.4214-11.975-8.0781-15.396-13.971-3.4215-6.0827-5.1328-13.116-5.1328-21.1v-5.7012c0-7.9835 1.6163-14.922 4.8477-20.814 3.4215-6.0825 8.4584-10.739 15.111-13.971 6.6529-3.4215 15.017-5.1328 25.092-5.1328 7.7934 0 14.827 1.1409 21.1 3.4218 6.2728 2.0909 11.215 5.2264 14.826 9.4083 3.8016 4.1817 5.7031 9.0286 5.7031 14.541h53.318c0-10.455-2.472-19.578-7.4141-27.371-4.7521-7.9835-11.595-14.637-20.529-19.959-8.7438-5.3223-18.818-9.3133-30.223-11.974-11.405-2.6612-23.666-3.9922-36.781-3.9922zm-336.01 206.22-15.973 114c-1.879 13.362 0.2089 23.906 6.2637 31.631 6.0548 7.5162 15.765 11.275 29.127 11.275 10.648 0 21.192-3.133 31.631-9.3965 9.0452-5.3207 18.85-13.381 29.402-24.125 0.061 9.0127 2.3667 16.43 6.9257 22.246 6.0548 7.5162 15.659 11.275 28.812 11.275 10.857 0 21.61-3.133 32.258-9.3965 9.6778-5.8825 20.227-14.728 31.629-26.475l-1.5645 31.799h23.176l21.607-152.83h-30.377l-13.68 99.74c-7.3293 6.3834-13.842 11.881-19.205 16.135-5.846 4.5933-11.169 8.0393-15.971 10.336-4.8021 2.0878-10.023 3.1308-15.66 3.1308-7.725 0-12.84-1.7749-15.346-5.3241-2.2966-3.7582-2.9228-9.6034-1.8789-17.537l15.033-106.48h-29.125l-13.809 98.553c-7.9571 7.3326-14.799 13.292-20.328 17.637-5.846 4.5932-11.067 7.9337-15.66 10.022-4.5932 2.0878-9.6028 3.1308-15.031 3.1308-6.6811 0-11.587-1.6692-14.719-5.0097-2.9229-3.5494-3.7585-9.5002-2.5058-17.852l15.031-106.48z" fill="#fff"/>
  </g>
 </g>
</svg>
